<?xml version="1.0" encoding="UTF-8"?>
<svg id="Layer_1" xmlns="http://www.w3.org/2000/svg" version="1.1" viewBox="0 0 154 32">
  <!-- Generator: Adobe Illustrator 29.1.0, SVG Export Plug-In . SVG Version: 2.1.0 Build 142)  -->
  <defs>
    <style>
      .st0, .st1, .st2 {
        fill: #fff;
      }

      .st1 {
        fill-opacity: .9;
      }

      .st3 {
        fill: #101828;
      }

      .st4 {
        fill: #465fff;
      }

      .st2 {
        fill-opacity: .7;
      }
    </style>
  </defs>
  <path class="st4" d="M0,8.4C0,3.8,3.8,0,8.4,0h15.2c4.7,0,8.4,3.8,8.4,8.4v15.2c0,4.7-3.8,8.4-8.4,8.4h-15.2c-4.7,0-8.4-3.8-8.4-8.4v-15.2Z"/>
  <path class="st0" d="M8.4,8.4c0-.9.8-1.7,1.7-1.7h0c.9,0,1.7.8,1.7,1.7v15.2c0,.9-.8,1.7-1.7,1.7h0c-.9,0-1.7-.8-1.7-1.7v-15.2Z"/>
  <path class="st1" d="M14.7,15.2c0-.9.8-1.7,1.7-1.7h0c.9,0,1.7.8,1.7,1.7v8.4c0,.9-.8,1.7-1.7,1.7h0c-.9,0-1.7-.8-1.7-1.7v-8.4Z" shape-rendering="crispEdges"/>
  <path class="st2" d="M21.1,10.9c0-.9.8-1.7,1.7-1.7h0c.9,0,1.7.8,1.7,1.7v12.6c0,.9-.8,1.7-1.7,1.7h0c-.9,0-1.7-.8-1.7-1.7v-12.6Z" shape-rendering="crispEdges"/>
  <path class="st3" d="M44.9-44.1h5.1v14.6h3v-14.6h5.1v-2.8h-13.2v2.8Z"/>
  <path class="st3" d="M61.5-29.2c1.8,0,3.4-.8,3.9-2l.2,1.7h2.5v-7.1c0-3.3-1.9-5-5.1-5s-5.3,1.7-5.3,4.2h2.5c0-1.2,1-1.9,2.7-1.9s2.4.6,2.4,2.2v.3l-3.5.3c-2.8.2-4.4,1.6-4.4,3.7s1.5,3.7,4,3.7ZM62.5-31.4c-1.3,0-2-.5-2-1.6s.7-1.5,2.5-1.7l2.4-.2v.6c0,1.8-1.1,2.9-2.9,2.9Z"/>
  <path class="st3" d="M72.5-43.6c1,0,1.7-.8,1.7-1.8s-.8-1.7-1.7-1.7-1.8.8-1.8,1.7.8,1.8,1.8,1.8ZM71.1-29.5h2.9v-11.7h-2.9v11.7Z"/>
  <path class="st3" d="M79.9-29.5v-17.7h-2.9v17.7h2.9Z"/>
  <path class="st3" d="M84.9-29.5l1.4-4h6.5l1.4,4h3.2l-6.3-17.4h-3.1l-6.3,17.4h3.2ZM89.1-41.7c.2-.5.3-1,.4-1.3,0,.4.2.9.4,1.3l2,5.6h-4.7l2-5.6Z"/>
  <path class="st3" d="M103.4-29.2c1.8,0,3.3-.8,4-2.1l.2,1.8h2.7v-17.7h-2.9v7.4c-.7-1.2-2.2-1.9-3.8-1.9-3.5,0-5.7,2.6-5.7,6.3s2.1,6.1,5.5,6.1ZM104.1-31.9c-2,0-3.3-1.5-3.3-3.6s1.2-3.6,3.3-3.6,3.3,1.5,3.3,3.6-1.3,3.6-3.3,3.6Z"/>
  <path class="st3" d="M116.2-29.5v-6.7c0-1.9,1.1-2.8,2.5-2.8s2.3.9,2.3,2.5v6.9h2.9v-6.7c0-1.9,1.1-2.8,2.5-2.8s2.3.9,2.3,2.6v6.9h2.9v-7.7c0-2.7-1.6-4.4-4.4-4.4s-3.2.9-3.8,2.2c-.6-1.4-1.9-2.2-3.6-2.2s-2.9.8-3.5,1.7l-.2-1.4h-2.7v11.7h2.9Z"/>
  <path class="st3" d="M135.8-43.6c1,0,1.7-.8,1.7-1.8s-.8-1.7-1.7-1.7-1.8.8-1.8,1.7.8,1.8,1.8,1.8ZM134.3-29.5h2.9v-11.7h-2.9v11.7Z"/>
  <path class="st3" d="M143.1-29.5v-6.3c0-1.9,1.1-3.1,2.9-3.1s2.5,1,2.5,2.9v6.5h2.9v-7.2c0-3-1.5-4.9-4.5-4.9s-3,.7-3.8,1.9l-.2-1.5h-2.7v11.7h2.9Z"/>
  <g>
    <path class="st3" d="M47.3,9.4h3.9l5.5,15.9h-3.8l-1.1-3.6h-5.2l-1.1,3.6h-3.8l5.5-15.9ZM51.2,19.2l-1.9-6.1-1.9,6.1h3.7Z"/>
    <path class="st3" d="M58.3,25.3v-15.9h3.7v15.9h-3.7Z"/>
    <path class="st3" d="M64.1,17.2c0-1,.2-1.9.5-2.8.4-.9.9-1.8,1.6-2.6.7-.8,1.5-1.4,2.5-1.8s2.1-.7,3.3-.7,2.8.3,3.9,1c1.1.6,1.9,1.5,2.5,2.5l-2.8,2c-.2-.6-.5-1-.9-1.3-.4-.3-.8-.5-1.3-.7-.5-.1-.9-.2-1.4-.2-.7,0-1.3.1-1.8.4-.5.3-1,.6-1.3,1.1-.3.5-.6,1-.8,1.5s-.3,1.1-.3,1.7.1,1.3.3,1.8.5,1.1.9,1.5c.4.4.8.8,1.3,1.1.5.3,1.1.4,1.7.4s.9,0,1.4-.2c.5-.1.9-.4,1.3-.7.4-.3.7-.8.9-1.3l3,1.8c-.3.8-.9,1.4-1.6,2-.7.6-1.5,1-2.4,1.3-.9.3-1.8.4-2.7.4s-2.2-.2-3.2-.7c-1-.5-1.8-1.1-2.5-1.9-.7-.8-1.2-1.7-1.6-2.6s-.6-2-.6-3Z"/>
    <path class="st3" d="M89,9.4h3.9l5.5,15.9h-3.8l-1.1-3.6h-5.2l-1.1,3.6h-3.8l5.5-15.9ZM92.9,19.2l-1.9-6.1-1.9,6.1h3.7Z"/>
    <path class="st3" d="M112.5,25.3v-9.5l-3.4,6.9h-2l-3.4-6.9v9.5h-3.7v-15.9h4l4.1,8.3,4.1-8.3h4v15.9h-3.7Z"/>
    <path class="st3" d="M123.3,9.4h3.9l5.5,15.9h-3.8l-1.1-3.6h-5.2l-1.1,3.6h-3.8l5.5-15.9ZM127.1,19.2l-1.9-6.1-1.9,6.1h3.7Z"/>
    <path class="st3" d="M134.2,25.3v-15.9h3.7v12.7h7.7v3.2h-11.4Z"/>
  </g>
</svg>