<?xml version="1.0" encoding="UTF-8"?>
<svg id="Layer_1" xmlns="http://www.w3.org/2000/svg" version="1.1" viewBox="0 0 154 32">
  <!-- Generator: Adobe Illustrator 29.1.0, SVG Export Plug-In . SVG Version: 2.1.0 Build 142)  -->
  <defs>
    <style>
      .st0, .st1, .st2 {
        fill: #fff;
      }

      .st1 {
        fill-opacity: .9;
      }

      .st3 {
        fill: #465fff;
      }

      .st2 {
        fill-opacity: .7;
      }
    </style>
  </defs>
  <path class="st3" d="M0,8.4C0,3.8,3.8,0,8.4,0h15.2c4.7,0,8.4,3.8,8.4,8.4v15.2c0,4.7-3.8,8.4-8.4,8.4h-15.2c-4.7,0-8.4-3.8-8.4-8.4v-15.2Z"/>
  <path class="st0" d="M8.4,8.4c0-.9.8-1.7,1.7-1.7s1.7.8,1.7,1.7v15.2c0,.9-.8,1.7-1.7,1.7s-1.7-.8-1.7-1.7v-15.2Z"/>
  <path class="st1" d="M14.7,15.2c0-.9.8-1.7,1.7-1.7s1.7.8,1.7,1.7v8.4c0,.9-.8,1.7-1.7,1.7s-1.7-.8-1.7-1.7v-8.4Z" shape-rendering="crispEdges"/>
  <path class="st2" d="M21.1,10.9c0-.9.8-1.7,1.7-1.7s1.7.8,1.7,1.7v12.6c0,.9-.8,1.7-1.7,1.7s-1.7-.8-1.7-1.7v-12.6Z" shape-rendering="crispEdges"/>
  <g>
    <path class="st0" d="M46.9,8h4.1l5.7,16.4h-3.9l-1.1-3.7h-5.4l-1.1,3.7h-3.9l5.6-16.4ZM50.8,18.1l-1.9-6.3-1.9,6.3h3.8Z"/>
    <path class="st0" d="M58.2,24.4V8h3.8v16.4h-3.8Z"/>
    <path class="st0" d="M64.1,16c0-1,.2-2,.5-2.9.4-1,.9-1.8,1.6-2.6.7-.8,1.6-1.4,2.6-1.9,1-.5,2.2-.7,3.4-.7s2.9.3,4,1c1.1.7,2,1.5,2.5,2.6l-2.9,2c-.2-.6-.5-1-1-1.4-.4-.3-.9-.6-1.3-.7-.5-.1-1-.2-1.4-.2-.7,0-1.3.1-1.9.4-.5.3-1,.7-1.3,1.1-.4.5-.6,1-.8,1.6-.2.6-.3,1.2-.3,1.7s.1,1.3.3,1.9c.2.6.5,1.1.9,1.6.4.5.8.8,1.4,1.1s1.1.4,1.8.4.9,0,1.4-.2c.5-.1.9-.4,1.3-.7.4-.3.7-.8.9-1.3l3.1,1.8c-.3.8-.9,1.5-1.6,2-.7.6-1.6,1-2.5,1.3-.9.3-1.8.4-2.8.4s-2.3-.2-3.2-.7-1.8-1.1-2.6-1.9c-.7-.8-1.3-1.7-1.7-2.7-.4-1-.6-2-.6-3.1Z"/>
    <path class="st0" d="M89.7,8h4.1l5.7,16.4h-3.9l-1.1-3.7h-5.4l-1.1,3.7h-3.9l5.6-16.4ZM93.7,18.1l-1.9-6.3-1.9,6.3h3.8Z"/>
    <path class="st0" d="M113.9,24.4v-9.8l-3.5,7.1h-2l-3.5-7.1v9.8h-3.8V8h4.1l4.2,8.5,4.2-8.5h4.1v16.4h-3.8Z"/>
    <path class="st0" d="M125,8h4.1l5.7,16.4h-3.9l-1.1-3.7h-5.4l-1.1,3.7h-3.9l5.6-16.4ZM128.9,18.1l-1.9-6.3-1.9,6.3h3.8Z"/>
    <path class="st0" d="M136.3,24.4V8h3.8v13h7.9v3.3h-11.7Z"/>
  </g>
</svg>